<?xml version="1.0" standalone="no"?>
<!DOCTYPE svg PUBLIC "-//W3C//DTD SVG 20010904//EN"
 "http://www.w3.org/TR/2001/REC-SVG-20010904/DTD/svg10.dtd">
<svg version="1.0" xmlns="http://www.w3.org/2000/svg"
 width="300.000000pt" height="568.000000pt" viewBox="0 0 300.000000 568.000000"
 preserveAspectRatio="xMidYMid meet">
<metadata>
Created by potrace 1.10, written by Peter Selinger 2001-2011
</metadata>
<g transform="translate(0.000000,568.000000) scale(0.100000,-0.100000)"
fill="#000000" stroke="none">
<path d="M1807 5431 c-29 -76 -47 -155 -78 -333 -43 -243 -45 -252 -200 -669
-22 -58 -41 -114 -43 -125 -2 -10 -19 -57 -36 -104 -17 -47 -41 -114 -52 -150
-22 -71 -65 -173 -182 -435 -109 -243 -251 -611 -286 -740 -13 -48 -46 -124
-82 -190 -106 -192 -115 -208 -167 -300 -86 -151 -271 -540 -271 -569 0 -8 -4
-17 -9 -20 -5 -3 -11 -16 -14 -28 -3 -13 -24 -68 -46 -123 -45 -107 -104 -210
-183 -318 l-49 -69 62 -66 c35 -37 122 -128 194 -203 354 -368 321 -330 446
-514 62 -90 157 -228 237 -342 7 -10 15 -13 17 -8 3 6 29 42 58 80 165 222
193 265 293 461 58 115 125 240 147 279 31 53 41 82 43 122 4 83 47 166 132
255 43 46 83 100 98 133 l25 54 -114 232 c-63 127 -117 226 -121 220 -11 -18
-24 -13 -31 12 -7 23 -79 193 -122 289 l-27 58 21 22 c43 50 52 68 178 408 24
63 58 153 75 200 18 47 46 123 62 170 17 47 58 139 93 205 138 266 178 341
195 370 128 217 178 339 266 643 24 83 39 114 52 109 4 -1 44 9 90 22 79 23
84 26 109 70 15 25 39 64 53 86 15 22 38 60 52 85 14 25 50 86 81 135 53 88
70 138 91 280 2 17 5 36 7 44 3 9 -59 42 -184 101 -103 48 -190 90 -194 94 -3
3 -13 6 -22 6 -9 0 -92 21 -186 46 -331 89 -426 114 -433 114 -4 0 -24 -45
-45 -99z m276 9 c351 -91 401 -107 547 -175 80 -37 160 -73 178 -81 17 -8 32
-18 32 -22 0 -5 -9 -56 -20 -115 -17 -97 -24 -114 -77 -199 -32 -51 -92 -148
-132 -215 -41 -68 -80 -123 -87 -123 -7 0 -19 -3 -28 -6 -13 -5 -16 1 -16 29
0 50 -18 60 -88 52 -59 -7 -272 22 -351 47 -21 6 -68 45 -126 103 -72 73 -104
97 -144 111 -28 10 -51 24 -51 31 0 6 16 104 35 217 38 223 96 412 123 401 7
-2 99 -27 205 -55z m-317 -621 c31 -13 82 -53 144 -113 93 -90 99 -94 166
-109 148 -33 291 -50 325 -38 39 14 59 1 59 -39 0 -24 -6 -28 -58 -43 l-58
-16 -48 -158 c-27 -87 -57 -188 -68 -225 -11 -38 -71 -163 -142 -295 -67 -125
-155 -290 -195 -365 -40 -76 -76 -138 -80 -138 -11 0 -74 69 -110 119 -17 25
-45 53 -61 63 -33 20 -36 29 -18 58 11 17 8 24 -16 49 -38 39 -89 63 -129 60
-23 -2 -39 3 -55 19 -27 27 -91 30 -128 6 -13 -9 -27 -15 -29 -12 -3 3 22 65
55 139 34 74 81 193 106 264 25 72 65 186 89 255 24 69 67 188 95 265 29 77
62 170 74 207 11 37 24 68 28 68 3 0 28 -9 54 -21z m-367 -1188 c10 -10 20
-23 22 -30 3 -7 14 -8 34 -2 62 16 152 -38 136 -83 -11 -27 5 -60 36 -77 13
-7 44 -41 69 -75 24 -34 58 -74 75 -87 l32 -25 -108 -288 c-59 -159 -127 -341
-151 -404 l-42 -115 -97 -9 -96 -9 -47 46 c-50 50 -71 57 -93 31 -26 -32 -69
-46 -120 -39 -32 5 -66 1 -105 -10 -53 -15 -57 -15 -77 2 -11 10 -28 37 -39
60 l-19 42 60 104 c37 66 69 139 86 198 35 120 179 501 242 642 l48 109 50 18
c65 24 81 24 104 1z m-538 -1204 c25 -18 28 -18 75 -2 27 9 72 16 99 15 79 -4
90 -1 129 25 42 28 61 24 90 -19 27 -42 47 -47 138 -37 46 5 85 8 86 6 2 -2
-10 -24 -28 -50 l-32 -46 37 -87 c20 -48 58 -136 85 -197 26 -60 50 -119 54
-129 6 -18 7 -18 19 -2 11 15 26 -11 115 -189 l102 -207 -19 -43 c-11 -24 -53
-80 -94 -124 -87 -92 -121 -158 -135 -256 -8 -53 -20 -87 -51 -140 -22 -38
-43 -74 -46 -80 -3 -6 -7 -6 -11 2 -23 49 -138 208 -192 265 -105 111 -214
158 -427 183 -137 17 -283 51 -370 89 -33 14 -91 30 -130 37 -38 7 -71 13 -72
14 -2 1 10 26 26 56 16 30 57 124 91 209 77 194 208 471 312 663 l81 149 21
-43 c12 -23 33 -51 47 -62z m-450 -1023 c30 -9 72 -25 94 -37 53 -26 225 -65
349 -78 129 -13 270 -58 334 -107 82 -62 208 -221 257 -323 l17 -36 -87 -174
c-67 -133 -113 -209 -199 -326 -61 -83 -113 -152 -116 -152 -3 0 -21 23 -40
51 -263 389 -312 450 -592 743 -150 157 -273 291 -273 298 0 6 23 44 50 84
l50 72 51 1 c28 0 75 -7 105 -16z"/>
</g>
</svg>
