<svg width="32" height="32" viewBox="0 0 32 32" fill="none" xmlns="http://www.w3.org/2000/svg">
<circle cx="16" cy="16" r="16" fill="#009971"/>
<path d="M4.926 11.926C4.638 11.926 4.408 11.852 4.236 11.704C4.064 11.556 3.978 11.354 3.978 11.098C3.978 10.842 4.064 10.642 4.236 10.498C4.408 10.35 4.638 10.276 4.926 10.276C5.218 10.276 5.448 10.35 5.616 10.498C5.788 10.642 5.874 10.842 5.874 11.098C5.874 11.354 5.788 11.556 5.616 11.704C5.448 11.852 5.218 11.926 4.926 11.926ZM5.736 13.216L5.664 14.506V18.322L6.552 18.586V19H3.438V18.586L4.344 18.322V14.65C4.296 14.606 4.218 14.552 4.11 14.488C4.006 14.42 3.89 14.352 3.762 14.284C3.634 14.212 3.508 14.148 3.384 14.092V13.78L5.43 13.216H5.736ZM11.2418 13.216C11.6858 13.216 12.0338 13.264 12.2858 13.36C12.5418 13.452 12.7238 13.57 12.8318 13.714C12.9398 13.854 12.9938 13.998 12.9938 14.146C12.9938 14.286 12.9618 14.414 12.8978 14.53C12.8338 14.646 12.7458 14.736 12.6338 14.8C12.5218 14.864 12.3978 14.896 12.2618 14.896C12.1818 14.896 12.0918 14.864 11.9918 14.8C11.8918 14.736 11.7858 14.656 11.6738 14.56C11.5658 14.464 11.4538 14.37 11.3378 14.278C11.2258 14.182 11.1158 14.102 11.0078 14.038C10.8998 13.97 10.7978 13.936 10.7018 13.936C10.4178 13.936 10.1638 14.004 9.93975 14.14C9.71575 14.272 9.53975 14.476 9.41175 14.752C9.28375 15.024 9.21975 15.374 9.21975 15.802C9.21975 16.306 9.29575 16.728 9.44775 17.068C9.60375 17.408 9.83175 17.664 10.1317 17.836C10.4317 18.008 10.7958 18.094 11.2238 18.094C11.4998 18.094 11.7718 18.056 12.0398 17.98C12.3118 17.9 12.5858 17.784 12.8618 17.632L12.9458 18.088C12.6858 18.32 12.4278 18.514 12.1718 18.67C11.9198 18.826 11.6678 18.942 11.4158 19.018C11.1638 19.094 10.9138 19.132 10.6657 19.132C10.1177 19.132 9.63975 19.016 9.23175 18.784C8.82375 18.552 8.50575 18.224 8.27775 17.8C8.05375 17.376 7.94175 16.872 7.94175 16.288C7.94175 15.836 8.01575 15.422 8.16375 15.046C8.31175 14.67 8.52575 14.346 8.80575 14.074C9.08575 13.802 9.42975 13.592 9.83775 13.444C10.2498 13.292 10.7178 13.216 11.2418 13.216ZM17.3883 18.358C17.7243 18.358 18.0103 18.288 18.2463 18.148C18.4863 18.004 18.6703 17.784 18.7983 17.488C18.9263 17.192 18.9903 16.808 18.9903 16.336C18.9903 15.816 18.9303 15.384 18.8103 15.04C18.6943 14.692 18.5203 14.43 18.2883 14.254C18.0563 14.078 17.7683 13.99 17.4243 13.99C17.0883 13.99 16.8003 14.06 16.5603 14.2C16.3243 14.34 16.1423 14.56 16.0143 14.86C15.8863 15.156 15.8223 15.54 15.8223 16.012C15.8223 16.528 15.8803 16.96 15.9963 17.308C16.1163 17.656 16.2923 17.918 16.5243 18.094C16.7603 18.27 17.0483 18.358 17.3883 18.358ZM17.3583 19.132C16.7583 19.132 16.2403 19.012 15.8043 18.772C15.3683 18.528 15.0303 18.188 14.7903 17.752C14.5543 17.312 14.4363 16.798 14.4363 16.21C14.4363 15.614 14.5603 15.092 14.8083 14.644C15.0603 14.192 15.4123 13.842 15.8643 13.594C16.3163 13.342 16.8463 13.216 17.4543 13.216C18.0543 13.216 18.5723 13.338 19.0083 13.582C19.4443 13.822 19.7803 14.16 20.0163 14.596C20.2523 15.032 20.3703 15.546 20.3703 16.138C20.3703 16.734 20.2443 17.258 19.9923 17.71C19.7443 18.158 19.3943 18.508 18.9423 18.76C18.4903 19.008 17.9623 19.132 17.3583 19.132ZM24.1161 14.446V18.334L24.9501 18.586V19H21.8901V18.586L22.7961 18.322V14.74C22.7281 14.672 22.6161 14.59 22.4601 14.494C22.3041 14.398 22.0981 14.282 21.8421 14.146V13.9L23.5761 13.204H23.7981L24.1161 14.446ZM25.8621 18.586L26.6901 18.334V15.376C26.6901 15.148 26.6481 14.96 26.5641 14.812C26.4841 14.66 26.3541 14.546 26.1741 14.47C25.9981 14.394 25.7721 14.356 25.4961 14.356C25.2201 14.356 24.9501 14.394 24.6861 14.47C24.4221 14.546 24.2041 14.64 24.0321 14.752L23.8641 14.488C24.1721 14.216 24.4341 13.996 24.6501 13.828C24.8701 13.66 25.0661 13.532 25.2381 13.444C25.4101 13.356 25.5761 13.296 25.7361 13.264C25.9001 13.232 26.0781 13.216 26.2701 13.216C26.8661 13.216 27.3041 13.378 27.5841 13.702C27.8681 14.022 28.0101 14.51 28.0101 15.166V18.322L28.9221 18.586V19H25.8621V18.586Z" fill="white"/>
</svg>
